<?xml version="1.0" encoding="utf-8"?>
<!-- Generator: Adobe Illustrator 23.0.3, SVG Export Plug-In . SVG Version: 6.00 Build 0)  -->
<svg version="1.1" id="Layer_1" xmlns="http://www.w3.org/2000/svg" xmlns:xlink="http://www.w3.org/1999/xlink" x="0px" y="0px"
	 viewBox="0 0 208 30" style="enable-background:new 0 0 208 30;" xml:space="preserve">
<style type="text/css">
	.st0{clip-path:url(#SVGID_2_);}
	.st1{fill:#212121;}
	.st2{clip-path:url(#SVGID_4_);}
</style>
<g>
	<g>
		<defs>
			<path id="SVGID_1_" d="M56.43,14.59l-6.86,0.01l-2.32,5.43h6.81l-2.95,6.79l5.39,0.01l2.89-6.82h6.88l2.41-5.41h-6.96l2.84-6.7
				l-5.28-0.03L56.43,14.59z M85.21,14.73l2.61-6.33l10.2-0.02l-2.73,6.37L85.21,14.73z M75.16,1.19L63.57,28.56l15.86-0.01
				l2.88-6.84l5.2,0.01l4.78,6.83l15.88-0.02l-4.64-6.63h4.36l8.91-20.15l0.01-0.59L75.16,1.19z M25.45,8.4l10.14-0.03l-2.65,6.23
				H22.79L25.45,8.4z M12.79,1.17L1.13,28.57l15.7-0.01l2.93-6.81h10.16l-2.93,6.8l15.65,0.01l11.69-27.4L12.79,1.17z"/>
		</defs>
		<clipPath id="SVGID_2_">
			<use xlink:href="#SVGID_1_"  style="overflow:visible;"/>
		</clipPath>
		<g class="st0">
			<rect x="-3.87" y="-3.84" class="st1" width="125.69" height="37.41"/>
		</g>
	</g>
	<g>
		<defs>
			<path id="SVGID_3_" d="M122.65,9.29c-2.47,0-4.48-2-4.48-4.48c0-2.47,2-4.48,4.48-4.48c2.47,0,4.48,2,4.48,4.48
				C127.13,7.28,125.12,9.29,122.65,9.29z M122.65,0.99c-2.08,0-3.76,1.72-3.76,3.82c0,2.1,1.68,3.82,3.76,3.82
				c2.08,0,3.77-1.72,3.77-3.82C126.42,2.71,124.73,0.99,122.65,0.99z M123.74,7.26l-1.12-2h-0.74v2h-0.68V2.35h1.67
				c0.85,0,1.55,0.64,1.55,1.47c0,0.72-0.44,1.16-1.05,1.35l1.17,2.09H123.74z M122.79,2.96h-0.92v1.72h0.92
				c0.54,0,0.93-0.36,0.93-0.85C123.72,3.33,123.33,2.96,122.79,2.96z"/>
		</defs>
		<clipPath id="SVGID_4_">
			<use xlink:href="#SVGID_3_"  style="overflow:visible;"/>
		</clipPath>
		<g class="st2">
			<rect x="113.18" y="-4.67" class="st1" width="18.95" height="18.95"/>
		</g>
	</g>
	<g>
		<path class="st1" d="M127.27,16.42h1.97l4.69,12.91h-1.92l-1.35-3.87h-5.07l-1.4,3.87h-1.79L127.27,16.42z M130.17,24.04
			l-1.99-5.7l-2.07,5.7H130.17z"/>
		<path class="st1" d="M135.57,19.92h1.5v1.63c0.12-0.32,0.42-0.7,0.91-1.16s1.03-0.68,1.66-0.68c0.03,0,0.08,0,0.15,0.01
			s0.19,0.02,0.36,0.04v1.67c-0.09-0.02-0.18-0.03-0.26-0.04s-0.17-0.01-0.26-0.01c-0.8,0-1.41,0.26-1.84,0.77s-0.64,1.1-0.64,1.77
			v5.41h-1.58V19.92z"/>
		<path class="st1" d="M141.76,19.92h1.56v1.34c0.38-0.46,0.71-0.8,1.02-1.01c0.52-0.36,1.11-0.54,1.78-0.54
			c0.75,0,1.35,0.18,1.81,0.55c0.26,0.21,0.49,0.52,0.7,0.93c0.35-0.5,0.76-0.88,1.24-1.12s1.01-0.37,1.6-0.37
			c1.27,0,2.13,0.46,2.58,1.37c0.25,0.49,0.37,1.15,0.37,1.99v6.27h-1.64v-6.54c0-0.63-0.16-1.06-0.47-1.29s-0.7-0.35-1.15-0.35
			c-0.62,0-1.16,0.21-1.6,0.62s-0.67,1.11-0.67,2.08v5.48h-1.61v-6.14c0-0.64-0.08-1.1-0.23-1.4c-0.24-0.44-0.69-0.66-1.34-0.66
			c-0.6,0-1.14,0.23-1.63,0.69s-0.73,1.3-0.73,2.51v4.99h-1.58V19.92z"/>
		<path class="st1" d="M162.03,23.64c0.36-0.05,0.61-0.2,0.73-0.46c0.07-0.14,0.11-0.34,0.11-0.61c0-0.54-0.19-0.93-0.58-1.18
			c-0.38-0.24-0.93-0.37-1.64-0.37c-0.82,0-1.41,0.22-1.75,0.67c-0.19,0.25-0.32,0.62-0.38,1.1h-1.48c0.03-1.16,0.41-1.97,1.13-2.43
			c0.72-0.46,1.56-0.68,2.51-0.68c1.11,0,2,0.21,2.7,0.63c0.68,0.42,1.03,1.08,1.03,1.97v5.42c0,0.16,0.03,0.3,0.1,0.4
			c0.07,0.1,0.21,0.15,0.43,0.15c0.07,0,0.15,0,0.24-0.01s0.18-0.02,0.28-0.04v1.17c-0.25,0.07-0.43,0.11-0.56,0.13
			s-0.3,0.03-0.53,0.03c-0.54,0-0.94-0.19-1.19-0.58c-0.13-0.21-0.22-0.5-0.27-0.87c-0.32,0.42-0.79,0.79-1.39,1.1
			s-1.27,0.47-2,0.47c-0.87,0-1.59-0.26-2.14-0.79c-0.55-0.53-0.83-1.19-0.83-1.99c0-0.87,0.27-1.55,0.82-2.03
			c0.54-0.48,1.26-0.78,2.14-0.89L162.03,23.64z M158.7,27.91c0.33,0.26,0.73,0.39,1.19,0.39c0.56,0,1.1-0.13,1.62-0.39
			c0.88-0.43,1.32-1.13,1.32-2.1v-1.27c-0.19,0.12-0.44,0.23-0.75,0.31c-0.3,0.08-0.6,0.14-0.89,0.18l-0.96,0.12
			c-0.57,0.08-1,0.2-1.29,0.36c-0.49,0.27-0.73,0.71-0.73,1.32C158.2,27.29,158.36,27.65,158.7,27.91z"/>
		<path class="st1" d="M167.54,17.29h1.6v2.63h1.5v1.29h-1.5v6.14c0,0.33,0.11,0.55,0.33,0.66c0.12,0.06,0.33,0.1,0.62,0.1
			c0.08,0,0.16,0,0.25-0.01s0.19-0.01,0.31-0.03v1.26c-0.18,0.05-0.37,0.09-0.57,0.11s-0.41,0.04-0.64,0.04
			c-0.74,0-1.24-0.19-1.5-0.57s-0.4-0.87-0.4-1.47v-6.23h-1.27v-1.29h1.27V17.29z"/>
		<path class="st1" d="M174.06,19.92v6.25c0,0.48,0.07,0.87,0.22,1.18c0.27,0.56,0.79,0.84,1.53,0.84c1.07,0,1.8-0.49,2.19-1.48
			c0.21-0.53,0.32-1.25,0.32-2.17v-4.62h1.58v9.41h-1.49l0.02-1.39c-0.2,0.36-0.45,0.66-0.75,0.91c-0.59,0.49-1.31,0.74-2.16,0.74
			c-1.32,0-2.21-0.45-2.69-1.34c-0.26-0.48-0.39-1.12-0.39-1.92v-6.4H174.06z"/>
		<path class="st1" d="M182.77,19.92h1.5v1.63c0.12-0.32,0.42-0.7,0.91-1.16s1.03-0.68,1.66-0.68c0.03,0,0.08,0,0.15,0.01
			s0.19,0.02,0.36,0.04v1.67c-0.09-0.02-0.18-0.03-0.26-0.04s-0.17-0.01-0.26-0.01c-0.8,0-1.41,0.26-1.84,0.77s-0.64,1.1-0.64,1.77
			v5.41h-1.58V19.92z"/>
		<path class="st1" d="M194.77,20.18c0.62,0.31,1.1,0.72,1.42,1.22c0.31,0.47,0.52,1.03,0.63,1.66c0.09,0.43,0.14,1.12,0.14,2.07
			h-6.85c0.03,0.96,0.25,1.73,0.67,2.3c0.42,0.58,1.07,0.87,1.94,0.87c0.82,0,1.47-0.27,1.96-0.82c0.27-0.32,0.47-0.69,0.58-1.1
			h1.56c-0.04,0.35-0.18,0.73-0.41,1.16s-0.49,0.77-0.77,1.04c-0.48,0.47-1.07,0.79-1.77,0.95c-0.38,0.09-0.8,0.14-1.28,0.14
			c-1.16,0-2.15-0.43-2.96-1.28c-0.81-0.85-1.21-2.05-1.21-3.58c0-1.51,0.41-2.74,1.22-3.68c0.81-0.94,1.88-1.42,3.2-1.42
			C193.5,19.71,194.15,19.87,194.77,20.18z M195.33,23.88c-0.06-0.69-0.21-1.23-0.44-1.64c-0.43-0.76-1.15-1.14-2.15-1.14
			c-0.72,0-1.33,0.26-1.81,0.79c-0.49,0.52-0.75,1.19-0.78,2H195.33z"/>
		<path class="st1" d="M199.2,19.92h1.5v1.34c0.45-0.55,0.92-0.95,1.42-1.19s1.05-0.36,1.66-0.36c1.34,0,2.24,0.47,2.71,1.4
			c0.26,0.51,0.39,1.24,0.39,2.19v6.04h-1.61V23.4c0-0.57-0.08-1.04-0.25-1.39c-0.28-0.59-0.79-0.88-1.53-0.88
			c-0.38,0-0.68,0.04-0.92,0.11c-0.43,0.13-0.81,0.39-1.14,0.77c-0.26,0.31-0.43,0.63-0.51,0.96s-0.12,0.8-0.12,1.42v4.93h-1.58
			V19.92z"/>
	</g>
</g>
</svg>
