<?xml version="1.0" encoding="utf-8" ?>
<svg xmlns="http://www.w3.org/2000/svg" xmlns:xlink="http://www.w3.org/1999/xlink" width="639" height="152">
	<path fill="rgb(255,255,255)" stroke="none" transform="matrix(3.99 0 0 3.99 0.782227 0.607422)" d="M16.0828 0.0137931L0 37.8124L21.6566 37.7959L25.6938 28.4083L39.7048 28.4083L35.669 37.7807L57.251 37.7959L73.3793 0L16.0828 0.0137931ZM86.1283 37.7959L102.119 0.0455172L159.568 0.0137931L159.553 0.82069L147.263 28.6069L141.247 28.6069L147.643 37.7503L125.742 37.7807L119.148 28.3628L111.974 28.3476L108 37.7807L86.1283 37.7959ZM66.8138 18.549L76.2731 18.5338L80.2193 9.28138L87.4993 9.32828L83.5835 18.5641L93.1793 18.5641L89.8593 26.0248L80.3697 26.0248L76.3793 35.4276L68.9476 35.411L73.0152 26.0386L63.6166 26.0386L66.8138 18.549ZM33.5503 9.99448L47.5338 9.95035L43.8786 18.549L29.88 18.549L33.5503 9.99448ZM115.978 18.7159L119.574 9.98069L133.647 9.95035L129.884 18.731L115.978 18.7159Z" fill-rule="evenodd"/>

</svg>